{
  "accessors": [
    {
      "bufferView": 2,
      "componentType": 5126,
      "count": 9632,
      "max": [
        260.40301513671875,
        281.40579223632812,
        94.815696716308594
      ],
      "min": [
        26.253997802734375,
        -2.7440950870513916,
        -170.4949951171875
      ],
      "type": "VEC3"
    },
    {
      "bufferView": 2,
      "byteOffset": 115584,
      "componentType": 5126,
      "count": 9632,
      "max": [
        1,
        1,
        1
      ],
      "min": [
        -1,
        -1,
        -1
      ],
      "type": "VEC3"
    },
    {
      "bufferView": 1,
      "componentType": 5126,
      "count": 9632,
      "max": [
        0.97899997234344482,
        0.98000001907348633
      ],
      "min": [
        0.004999999888241291,
        0.004999999888241291
      ],
      "type": "VEC2"
    },
    {
      "bufferView": 0,
      "componentType": 5125,
      "count": 34383,
      "max": [
        9631
      ],
      "min": [
        0
      ],
      "type": "SCALAR"
    },
    {
      "bufferView": 2,
      "byteOffset": 231168,
      "componentType": 5126,
      "count": 8137,
      "max": [
        252.51150512695312,
        318.37979125976562,
        312.57940673828125
      ],
      "min": [
        -49.13079833984375,
        -37.166305541992188,
        -176.39459228515625
      ],
      "type": "VEC3"
    },
    {
      "bufferView": 2,
      "byteOffset": 328812,
      "componentType": 5126,
      "count": 8137,
      "max": [
        0.9999580979347229,
        0.9998895525932312,
        0.99998754262924194
      ],
      "min": [
        -1,
        -0.99999409914016724,
        -1
      ],
      "type": "VEC3"
    },
    {
      "bufferView": 1,
      "byteOffset": 77056,
      "componentType": 5126,
      "count": 8137,
      "max": [
        0.98989999294281006,
        0.99500000476837158
      ],
      "min": [
        0.004999999888241291,
        0.004999999888241291
      ],
      "type": "VEC2"
    },
    {
      "bufferView": 0,
      "byteOffset": 137532,
      "componentType": 5125,
      "count": 24120,
      "max": [
        8136
      ],
      "min": [
        0
      ],
      "type": "SCALAR"
    },
    {
      "bufferView": 2,
      "byteOffset": 426456,
      "componentType": 5126,
      "count": 2428,
      "max": [
        201.58470153808594,
        291.74630737304688,
        -113.22139739990234
      ],
      "min": [
        149.87449645996094,
        230.60420227050781,
        -158.31597900390625
      ],
      "type": "VEC3"
    },
    {
      "bufferView": 2,
      "byteOffset": 455592,
      "componentType": 5126,
      "count": 2428,
      "max": [
        0.99410814046859741,
        0.98379850387573242,
        1
      ],
      "min": [
        -0.99538862705230713,
        -0.96319663524627686,
        -1
      ],
      "type": "VEC3"
    },
    {
      "bufferView": 1,
      "byteOffset": 142152,
      "componentType": 5126,
      "count": 2428,
      "max": [
        0.98769998550415039,
        0.98830002546310425
      ],
      "min": [
        0.004999999888241291,
        0.004999999888241291
      ],
      "type": "VEC2"
    },
    {
      "bufferView": 0,
      "byteOffset": 234012,
      "componentType": 5125,
      "count": 6888,
      "max": [
        2427
      ],
      "min": [
        0
      ],
      "type": "SCALAR"
    },
    {
      "bufferView": 2,
      "byteOffset": 484728,
      "componentType": 5126,
      "count": 11520,
      "max": [
        259.92471313476562,
        239.34120178222656,
        215.24151611328125
      ],
      "min": [
        71.243896484375,
        32.491600036621094,
        -161.23809814453125
      ],
      "type": "VEC3"
    },
    {
      "bufferView": 2,
      "byteOffset": 622968,
      "componentType": 5126,
      "count": 11520,
      "max": [
        0.9999961256980896,
        0.99999910593032837,
        0.99999874830245972
      ],
      "min": [
        -0.9999995231628418,
        -0.99999833106994629,
        -0.99999874830245972
      ],
      "type": "VEC3"
    },
    {
      "bufferView": 1,
      "byteOffset": 161576,
      "componentType": 5126,
      "count": 11520,
      "max": [
        0.98750001192092896,
        0.98650002479553223
      ],
      "min": [
        0.004999999888241291,
        0.004999999888241291
      ],
      "type": "VEC2"
    },
    {
      "bufferView": 0,
      "byteOffset": 261564,
      "componentType": 5125,
      "count": 30084,
      "max": [
        11519
      ],
      "min": [
        0
      ],
      "type": "SCALAR"
    },
    {
      "bufferView": 2,
      "byteOffset": 761208,
      "componentType": 5126,
      "count": 2272,
      "max": [
        221.06239318847656,
        227.85940551757812,
        172.55360412597656
      ],
      "min": [
        90.354202270507812,
        28.281501770019531,
        -160.06759643554688
      ],
      "type": "VEC3"
    },
    {
      "bufferView": 2,
      "byteOffset": 788472,
      "componentType": 5126,
      "count": 2272,
      "max": [
        0.99999576807022095,
        1,
        1
      ],
      "min": [
        -0.99999374151229858,
        -1,
        -1
      ],
      "type": "VEC3"
    },
    {
      "bufferView": 1,
      "byteOffset": 253736,
      "componentType": 5126,
      "count": 2272,
      "max": [
        0.9747999906539917,
        0.97970002889633179
      ],
      "min": [
        0.004999999888241291,
        0.004999999888241291
      ],
      "type": "VEC2"
    },
    {
      "bufferView": 0,
      "byteOffset": 381900,
      "componentType": 5125,
      "count": 9954,
      "max": [
        2271
      ],
      "min": [
        0
      ],
      "type": "SCALAR"
    },
    {
      "bufferView": 2,
      "byteOffset": 815736,
      "componentType": 5126,
      "count": 10105,
      "max": [
        249.07420349121094,
        269.07101440429688,
        192.15240478515625
      ],
      "min": [
        43.924400329589844,
        19.624496459960938,
        -160.20458984375
      ],
      "type": "VEC3"
    },
    {
      "bufferView": 2,
      "byteOffset": 936996,
      "componentType": 5126,
      "count": 10105,
      "max": [
        0.99995160102844238,
        0.99991273880004883,
        0.99998486042022705
      ],
      "min": [
        -0.99995100498199463,
        -0.99991112947463989,
        -0.99998486042022705
      ],
      "type": "VEC3"
    },
    {
      "bufferView": 1,
      "byteOffset": 271912,
      "componentType": 5126,
      "count": 10105,
      "max": [
        0.97990000247955322,
        0.95889997482299805
      ],
      "min": [
        0.004999999888241291,
        0.004999999888241291
      ],
      "type": "VEC2"
    },
    {
      "bufferView": 0,
      "byteOffset": 421716,
      "componentType": 5125,
      "count": 36000,
      "max": [
        10104
      ],
      "min": [
        0
      ],
      "type": "SCALAR"
    },
    {
      "bufferView": 2,
      "byteOffset": 1058256,
      "componentType": 5126,
      "count": 830,
      "max": [
        260.88888549804688,
        219.71910095214844,
        168.38589477539062
      ],
      "min": [
        85.363296508789062,
        58.56939697265625,
        -168.45550537109375
      ],
      "type": "VEC3"
    },
    {
      "bufferView": 2,
      "byteOffset": 1068216,
      "componentType": 5126,
      "count": 830,
      "max": [
        1,
        1,
        0.95879989862442017
      ],
      "min": [
        -1,
        -1,
        -0.95750951766967773
      ],
      "type": "VEC3"
    },
    {
      "bufferView": 1,
      "byteOffset": 352752,
      "componentType": 5126,
      "count": 830,
      "max": [
        0.94720000028610229,
        0.94859999418258667
      ],
      "min": [
        0.027100000530481339,
        0.004999999888241291
      ],
      "type": "VEC2"
    },
    {
      "bufferView": 0,
      "byteOffset": 565716,
      "componentType": 5125,
      "count": 2112,
      "max": [
        829
      ],
      "min": [
        0
      ],
      "type": "SCALAR"
    }
  ],
  "asset": {
    "extras": {
      "author": "igoremba (https://sketchfab.com/igoremba)",
      "license": "CC-BY-4.0 (http://creativecommons.org/licenses/by/4.0/)",
      "source": "https://sketchfab.com/3d-models/home-game-6c8879b3c3934fff9a1339abe476122b",
      "title": "Home game"
    },
    "generator": "Sketchfab-8.66.1",
    "version": "2.0"
  },
  "bufferViews": [
    {
      "buffer": 0,
      "byteLength": 574164,
      "byteOffset": 0,
      "name": "floatBufferViews",
      "target": 34963
    },
    {
      "buffer": 0,
      "byteLength": 359392,
      "byteOffset": 574164,
      "byteStride": 8,
      "name": "floatBufferViews",
      "target": 34962
    },
    {
      "buffer": 0,
      "byteLength": 1078176,
      "byteOffset": 933556,
      "byteStride": 12,
      "name": "floatBufferViews",
      "target": 34962
    }
  ],
  "buffers": [
    {
      "byteLength": 2011732,
      "uri": "scene.bin"
    }
  ],
  "images": [
    {
      "uri": "textures/tpm2_02___Default_baseColor.png"
    }
  ],
  "materials": [
    {
      "doubleSided": true,
      "emissiveFactor": [
        1,
        1,
        1
      ],
      "emissiveTexture": {
        "index": 0,
        "texCoord": 0
      },
      "name": "tpm2_02___Default",
      "pbrMetallicRoughness": {
        "baseColorFactor": [
          1,
          1,
          1,
          1
        ],
        "baseColorTexture": {
          "index": 0,
          "texCoord": 0
        },
        "metallicFactor": 0,
        "roughnessFactor": 0.59999999999999998
      }
    }
  ],
  "meshes": [
    {
      "primitives": [
        {
          "attributes": {
            "NORMAL": 1,
            "POSITION": 0,
            "TEXCOORD_0": 2
          },
          "indices": 3,
          "material": 0,
          "mode": 4
        }
      ]
    },
    {
      "primitives": [
        {
          "attributes": {
            "NORMAL": 5,
            "POSITION": 4,
            "TEXCOORD_0": 6
          },
          "indices": 7,
          "material": 0,
          "mode": 4
        }
      ]
    },
    {
      "primitives": [
        {
          "attributes": {
            "NORMAL": 9,
            "POSITION": 8,
            "TEXCOORD_0": 10
          },
          "indices": 11,
          "material": 0,
          "mode": 4
        }
      ]
    },
    {
      "primitives": [
        {
          "attributes": {
            "NORMAL": 13,
            "POSITION": 12,
            "TEXCOORD_0": 14
          },
          "indices": 15,
          "material": 0,
          "mode": 4
        }
      ]
    },
    {
      "primitives": [
        {
          "attributes": {
            "NORMAL": 17,
            "POSITION": 16,
            "TEXCOORD_0": 18
          },
          "indices": 19,
          "material": 0,
          "mode": 4
        }
      ]
    },
    {
      "primitives": [
        {
          "attributes": {
            "NORMAL": 21,
            "POSITION": 20,
            "TEXCOORD_0": 22
          },
          "indices": 23,
          "material": 0,
          "mode": 4
        }
      ]
    },
    {
      "primitives": [
        {
          "attributes": {
            "NORMAL": 25,
            "POSITION": 24,
            "TEXCOORD_0": 26
          },
          "indices": 27,
          "material": 0,
          "mode": 4
        }
      ]
    }
  ],
  "nodes": [
    {
      "children": [
        1
      ],
      "name": "RootNode (gltf orientation matrix)",
      "rotation": [
        -0.70710678118654746,
        -0,
        -0,
        0.70710678118654757
      ]
    },
    {
      "children": [
        2
      ],
      "name": "RootNode (model correction matrix)"
    },
    {
      "children": [
        3,
        4,
        5,
        6,
        7,
        8,
        9
      ],
      "name": "homtpm2.obj.cleaner.materialmerger.gles"
    },
    {
      "mesh": 0,
      "name": ""
    },
    {
      "mesh": 1,
      "name": ""
    },
    {
      "mesh": 2,
      "name": ""
    },
    {
      "mesh": 3,
      "name": ""
    },
    {
      "mesh": 4,
      "name": ""
    },
    {
      "mesh": 5,
      "name": ""
    },
    {
      "mesh": 6,
      "name": ""
    }
  ],
  "samplers": [
    {
      "magFilter": 9729,
      "minFilter": 9987,
      "wrapS": 10497,
      "wrapT": 10497
    }
  ],
  "scene": 0,
  "scenes": [
    {
      "name": "OSG_Scene",
      "nodes": [
        0
      ]
    }
  ],
  "textures": [
    {
      "sampler": 0,
      "source": 0
    }
  ]
}

